<?xml version="1.0" encoding="UTF-8"?>
<svg width="70px" height="70px" viewBox="0 0 70 70" version="1.1" xmlns="http://www.w3.org/2000/svg" xmlns:xlink="http://www.w3.org/1999/xlink">
    <!-- Generator: Sketch 59.1 (86144) - https://sketch.com -->
    <title>150+ controls</title>
    <desc>Created with Sketch.</desc>
    <g id="150+-controls" stroke="none" stroke-width="1" fill="none" fill-rule="evenodd">
        <g id="Group-76-Copy-3" transform="translate(1.000000, 2.000000)">
            <rect id="Rectangle-Copy-36" stroke="#434350" stroke-width="2" fill-rule="nonzero" x="1" y="15.915493" width="44" height="40"></rect>
            <line x1="16.4507042" y1="21.6" x2="16.4507042" y2="50.4" id="Line" stroke="#434350" stroke-width="2" stroke-linecap="square"></line>
            <line x1="40.5116798" y1="30" x2="4.95070423" y2="30" id="Line" stroke="#434350" stroke-width="2" stroke-linecap="square"></line>
            <line x1="40.9507042" y1="42" x2="4.95070423" y2="42" id="Line-Copy-2" stroke="#434350" stroke-width="2" stroke-linecap="square"></line>
            <line x1="30.4507042" y1="21.6" x2="30.4507042" y2="50.4" id="Line-Copy" stroke="#434350" stroke-width="2" stroke-linecap="square"></line>
            <g id="Group-8" transform="translate(21.535211, 22.802817)" fill-rule="nonzero">
                <g id="Group-9">
                    <path d="M20.915493,0.197183099 C23.7050211,0.197183099 26.4137093,0.464637403 29.0009548,0.968171275 L28.999493,39.197 L3.46563156,39.1981471 C1.28154373,35.9668108 0,32.0328043 0,27.7887324 C0,16.7897093 8.60748333,7.87323944 19.2253521,7.87323944 C19.4562924,7.87323944 19.6862817,7.87745755 19.9152521,7.88582345 L19.9151459,0.208675532 C20.2473848,0.201031964 20.5808572,0.197183099 20.915493,0.197183099 Z" id="Combined-Shape" fill="#FFFFFF"></path>
                    <path d="M20.1364998,13.8028005 L20.1361502,27.4102538 L35.0967695,27.4098449 C35.1073345,27.6354447 35.1126761,27.862411 35.1126761,28.0906257 C35.1126761,35.9903634 28.7122397,42.3943662 20.8169014,42.3943662 C12.9215631,42.3943662 6.52112676,35.9903634 6.52112676,28.0906257 C6.52112676,20.4191025 12.5571017,14.1581425 20.1364998,13.8028005 Z" id="Combined-Shape" stroke="#434350" stroke-width="2"></path>
                    <path d="M26.9295775,6.90140845 C34.933817,6.90140845 41.4225352,13.3901267 41.4225352,21.3943662 C41.4225352,21.6259328 41.4171043,21.856231 41.406363,22.0851404 L26.2394366,22.084507 L26.239608,6.91754295 C26.4682524,6.90682662 26.6982822,6.90140845 26.9295775,6.90140845 Z" id="Combined-Shape" stroke="#434350" stroke-width="2"></path>
                </g>
            </g>
            <path d="M53.4507042,8.27544371 C55.7103018,8.30289372 57.4741468,8.98402794 58.7422393,10.3188464 C60.0103317,11.6536648 60.6471122,13.880716 60.6525806,17 C60.7795266,13.6567092 61.2907282,11.429658 62.1861855,10.3188464 C63.0816427,9.20803476 64.8364823,8.52690054 67.4507042,8.27544371 C64.7840585,7.76500702 63.029219,7.11298432 62.1861855,6.3193756 C61.343152,5.52576689 60.8319504,3.41930835 60.6525806,0 C60.668696,3.20996695 60.1589269,5.31642549 59.1232734,6.3193756 C58.08762,7.32232572 56.1967636,7.97434842 53.4507042,8.27544371 Z" id="Path-2" stroke="#434350" stroke-width="2" stroke-linejoin="round"></path>
        </g>
        <rect id="Rectangle-Copy-22" stroke="#979797" fill="#D8D8D8" opacity="0" x="0" y="0" width="70" height="70"></rect>
    </g>
</svg>