<?xml version="1.0" encoding="UTF-8"?>
<svg width="70px" height="70px" viewBox="0 0 70 70" version="1.1" xmlns="http://www.w3.org/2000/svg" xmlns:xlink="http://www.w3.org/1999/xlink">
    <!-- Generator: Sketch 59.1 (86144) - https://sketch.com -->
    <title>demos and training copy</title>
    <desc>Created with Sketch.</desc>
    <g id="demos-and-training-copy" stroke="none" stroke-width="1" fill="none" fill-rule="evenodd">
        <path d="M20.7992825,46.7236927 C25.8735323,48.984786 29.440412,54.0181052 29.5757232,59.8994516 L29.5797101,60.2463768 L29.5797101,61.2173913 C29.5797101,61.7696761 29.1319949,62.2173913 28.5797101,62.2173913 C28.0668743,62.2173913 27.644203,61.8313511 27.5864379,61.3340124 L27.5797101,61.2173913 L27.5797101,60.2463768 C27.5797101,54.5972726 23.919354,49.8030903 18.8409999,48.1061884 C19.4200271,47.7880213 19.9681141,47.41617 20.4793077,46.9972711 L20.781549,46.7403392 L20.7992825,46.7236927 Z M7.54968339,47.3344753 C8.19188983,47.8099574 8.88608542,48.2133263 9.62133693,48.5344508 L9.60256956,48.5410365 C5.2110566,50.4873146 2.11931647,54.832415 1.98974107,59.9139456 L1.98550725,60.2463768 L1.98550725,61.2173913 C1.98550725,61.7696761 1.537792,62.2173913 0.985507246,62.2173913 C0.472671407,62.2173913 0.0500000857,61.8313511 -0.0077650223,61.3340124 L-0.0144927536,61.2173913 L-0.0144927536,60.2463768 C-0.0144927536,54.7012691 3.0356426,49.8685586 7.54968339,47.3344753 Z M64.4775539,9 C65.8919417,9 67.0385295,10.1465878 67.0385295,11.5609756 L67.0385295,52.757865 C67.0385295,54.1722527 65.8919417,55.3188406 64.4775539,55.3188406 L32.5210122,55.318 L32.5217391,54.826087 C32.5217391,54.3176451 32.4984038,53.8146536 32.4527462,53.3181261 L64.4775539,53.3188406 C64.7873722,53.3188406 65.0385295,53.0676832 65.0385295,52.757865 L65.0385295,11.5609756 C65.0385295,11.2511573 64.7873722,11 64.4775539,11 L6.5030046,11 C6.19318632,11 5.94202899,11.2511573 5.94202899,11.5609756 L5.94231181,31.9208597 C5.11598812,32.969299 4.43802665,34.1503197 3.94201223,35.4288105 L3.94202899,11.5609756 C3.94202899,10.1465878 5.08861682,9 6.5030046,9 L64.4775539,9 Z M14.2898551,31.6521739 C18.3799639,31.6521739 21.6956522,34.9678622 21.6956522,39.057971 C21.6956522,43.1480798 18.3799639,46.4637681 14.2898551,46.4637681 C10.1997463,46.4637681 6.88405797,43.1480798 6.88405797,39.057971 C6.88405797,34.9678622 10.1997463,31.6521739 14.2898551,31.6521739 Z M37.0499221,16.9114232 C44.677855,16.9114232 50.8615163,23.0950845 50.8615163,30.7230174 C50.8615163,38.3509502 44.677855,44.5346116 37.0499221,44.5346116 C29.4219893,44.5346116 23.2383279,38.3509502 23.2383279,30.7230174 C23.2383279,23.0950845 29.4219893,16.9114232 37.0499221,16.9114232 Z M14.2898551,33.6521739 C11.3043158,33.6521739 8.88405797,36.0724317 8.88405797,39.057971 C8.88405797,42.0435103 11.3043158,44.4637681 14.2898551,44.4637681 C17.2753944,44.4637681 19.6956522,42.0435103 19.6956522,39.057971 C19.6956522,36.0724317 17.2753944,33.6521739 14.2898551,33.6521739 Z M37.0499221,18.9114232 C30.5265588,18.9114232 25.2383279,24.199654 25.2383279,30.7230174 C25.2383279,37.2463807 30.5265588,42.5346116 37.0499221,42.5346116 C43.5732855,42.5346116 48.8615163,37.2463807 48.8615163,30.7230174 C48.8615163,24.199654 43.5732855,18.9114232 37.0499221,18.9114232 Z M35.1727739,24.2657324 L43.0568318,30.0077497 C43.6241422,30.4209261 43.600476,31.274684 43.0111478,31.6557982 L35.1270898,36.7543606 C34.461714,37.1846543 33.5840553,36.7070375 33.5840553,35.9146502 L33.5840553,25.0740705 C33.5840553,24.2564735 34.5118791,23.7843979 35.1727739,24.2657324 Z M35.5840553,27.039484 L35.5840553,34.0770707 L40.7023002,30.7671393 L35.5840553,27.039484 Z" id="Combined-Shape" fill="#434350" fill-rule="nonzero"></path>
    </g>
</svg>