<svg xmlns="http://www.w3.org/2000/svg" xmlns:xlink="http://www.w3.org/1999/xlink" viewBox="0 0 150 104.76"><defs><style>.cls-1{fill:#c6c6c6;}.cls-2,.cls-8{fill:#aaa;}.cls-13,.cls-2,.cls-7{stroke:#727272;stroke-miterlimit:10;}.cls-2{stroke-width:0.5px;}.cls-3{fill:url(#未命名的渐变_4);}.cls-4{fill:url(#未命名的渐变_4-2);}.cls-5{fill:url(#未命名的渐变_4-3);}.cls-6{fill:url(#未命名的渐变_4-4);}.cls-13,.cls-7{stroke-width:0.25px;}.cls-7{fill:url(#未命名的渐变_74);}.cls-9{fill:url(#未命名的渐变_4-5);}.cls-10{fill:url(#未命名的渐变_4-6);}.cls-11{fill:url(#未命名的渐变_4-7);}.cls-12{fill:url(#未命名的渐变_4-8);}.cls-13{fill:url(#未命名的渐变_74-2);}.cls-14{opacity:0.2;}</style><linearGradient id="未命名的渐变_4" x1="91.66" y1="46" x2="105.5" y2="46" gradientTransform="translate(43.85 -42.07) rotate(30.87)" gradientUnits="userSpaceOnUse"><stop offset="0" stop-color="#aaa"/><stop offset="0.18" stop-color="#ccc"/><stop offset="0.37" stop-color="#eaeaea"/><stop offset="0.48" stop-color="#f6f6f6"/><stop offset="0.55" stop-color="#f0f0f0"/><stop offset="0.64" stop-color="#dfdfdf"/><stop offset="0.75" stop-color="#c4c4c4"/><stop offset="0.86" stop-color="#9e9e9e"/><stop offset="0.98" stop-color="#6d6d6d"/><stop offset="1" stop-color="#666"/></linearGradient><linearGradient id="未命名的渐变_4-2" x1="91.42" y1="1161.49" x2="105.26" y2="1161.49" gradientTransform="matrix(0.86, 0.51, 0.51, -0.86, -588.38, 1015.59)" xlink:href="#未命名的渐变_4"/><linearGradient id="未命名的渐变_4-3" x1="-1025.45" y1="44.9" x2="-1011.6" y2="44.9" gradientTransform="translate(-375.69 962.05) rotate(120.87)" xlink:href="#未命名的渐变_4"/><linearGradient id="未命名的渐变_4-4" x1="-1025.47" y1="1154.47" x2="-1011.63" y2="1154.47" gradientTransform="matrix(-0.51, 0.86, 0.86, 0.51, -1425.94, 334.25)" xlink:href="#未命名的渐变_4"/><linearGradient id="未命名的渐变_74" x1="98.15" y1="63.24" x2="98.15" y2="53.47" gradientTransform="translate(43.85 -42.07) rotate(30.87)" gradientUnits="userSpaceOnUse"><stop offset="0" stop-color="#6b6b6b"/><stop offset="0.01" stop-color="#767676"/><stop offset="0.03" stop-color="#959595"/><stop offset="0.04" stop-color="#aaa"/><stop offset="0.37" stop-color="#ccc"/><stop offset="0.74" stop-color="#eaeaea"/><stop offset="0.94" stop-color="#f6f6f6"/><stop offset="0.95" stop-color="#ededed"/><stop offset="0.96" stop-color="#d4d4d4"/><stop offset="0.97" stop-color="#ababab"/><stop offset="0.99" stop-color="#737373"/><stop offset="0.99" stop-color="#666"/></linearGradient><linearGradient id="未命名的渐变_4-5" x1="38.38" y1="30.11" x2="57.72" y2="30.11" gradientTransform="matrix(1, 0, 0, 1, 0, 0)" xlink:href="#未命名的渐变_4"/><linearGradient id="未命名的渐变_4-6" x1="38.04" y1="1167.57" x2="57.38" y2="1167.57" gradientTransform="matrix(1, 0, 0, -1, 0, 1232.22)" xlink:href="#未命名的渐变_4"/><linearGradient id="未命名的渐变_4-7" x1="-1039.08" y1="90.82" x2="-1019.74" y2="90.82" gradientTransform="translate(155.09 1077.13) rotate(90)" xlink:href="#未命名的渐变_4"/><linearGradient id="未命名的渐变_4-8" x1="-1039.08" y1="1098.86" x2="-1019.74" y2="1098.86" gradientTransform="matrix(0, 1, 1, 0, -1068.5, 1077.13)" xlink:href="#未命名的渐变_4"/><linearGradient id="未命名的渐变_74-2" x1="47.39" y1="54.23" x2="47.39" y2="40.58" gradientTransform="matrix(1, 0, 0, 1, 0, 0)" xlink:href="#未命名的渐变_74"/></defs><title>IoT-pump（泵）</title><g id="图层_18" data-name="图层 18"><circle class="cls-1" cx="98.11" cy="58.38" r="33.92"/><circle class="cls-2" cx="98.11" cy="58.38" r="30.02"/><path class="cls-3" d="M98.71,59.81l-3-1.81a2.94,2.94,0,0,1-1.17-3.72l8.57-19a2.94,2.94,0,0,1,4.18-1.31L115.71,39a2.93,2.93,0,0,1,.69,4.46l-14,15.78A2.92,2.92,0,0,1,98.71,59.81Z"/><path class="cls-4" d="M99.46,58.09l-3-1.81A2.93,2.93,0,0,0,92.6,57L79.9,73.56a2.93,2.93,0,0,0,.82,4.3l8.46,5.06a2.93,2.93,0,0,0,4.25-1.51l7.28-19.8A2.92,2.92,0,0,0,99.46,58.09Z"/><path class="cls-5" d="M96.54,58.63l1.81-3a2.93,2.93,0,0,1,3.72-1.17l19,8.57a2.92,2.92,0,0,1,1.31,4.17l-5,8.46a2.94,2.94,0,0,1-4.46.69l-15.79-14A2.94,2.94,0,0,1,96.54,58.63Z"/><path class="cls-6" d="M98.59,59.82l1.81-3A2.93,2.93,0,0,0,99.67,53L83.12,40.26a2.93,2.93,0,0,0-4.3.82l-5.06,8.46a2.93,2.93,0,0,0,1.51,4.25l19.79,7.28A2.93,2.93,0,0,0,98.59,59.82Z"/><circle class="cls-7" cx="98.15" cy="58.38" r="4.88"/><circle class="cls-1" cx="47.32" cy="47.4" r="47.4"/><circle class="cls-2" cx="47.32" cy="47.4" r="41.94"/><rect class="cls-1" x="-0.08" y="92.03" width="150.17" height="12.71"/><rect class="cls-8" x="-0.08" y="95.78" width="150.17" height="5.87"/><path class="cls-9" d="M49.14,48.68H44.21a4.09,4.09,0,0,1-4.07-3.62l-3.37-29a4.1,4.1,0,0,1,4.07-4.57H54.61a4.09,4.09,0,0,1,4,4.85l-5.46,29A4.1,4.1,0,0,1,49.14,48.68Z"/><path class="cls-10" d="M48.8,46.08H43.87A4.09,4.09,0,0,0,39.8,49.7l-3.37,29a4.1,4.1,0,0,0,4.07,4.57H54.27a4.09,4.09,0,0,0,4-4.85l-5.46-29A4.1,4.1,0,0,0,48.8,46.08Z"/><path class="cls-11" d="M45.69,48.82V43.89a4.1,4.1,0,0,1,3.62-4.07l29-3.37a4.1,4.1,0,0,1,4.57,4.07V54.28a4.1,4.1,0,0,1-4.85,4L49,52.84A4.09,4.09,0,0,1,45.69,48.82Z"/><path class="cls-12" d="M49,48.82V43.89a4.1,4.1,0,0,0-3.63-4.07l-29-3.37a4.1,4.1,0,0,0-4.57,4.07V54.28a4.1,4.1,0,0,0,4.86,4l29-5.47A4.08,4.08,0,0,0,49,48.82Z"/><circle class="cls-13" cx="47.39" cy="47.4" r="6.82"/></g><g id="图层_34" data-name="图层 34"><g class="cls-14"><path d="M30.73,53.15q-.27.56-.66,1.26c-.26.47-.53,1-.83,1.44s-.6,1-.91,1.43-.58.88-.84,1.25L25.14,57.4c.28-.36.57-.76.88-1.21s.6-.9.89-1.36.55-.91.79-1.36.43-.84.58-1.18Zm4-1.84v4.12a4.05,4.05,0,0,1-.14,1.17,1.63,1.63,0,0,1-.44.73,2.25,2.25,0,0,1-.81.45c-.33.12-.73.23-1.21.35l-1.17.28-.83-2.59.89-.21a2.35,2.35,0,0,0,.73-.28.62.62,0,0,0,.2-.54V51.68l-5.6.73.59-7.73,2-.29,2.1-.34c.71-.12,1.43-.25,2.14-.39l2.07-.41c.66-.13,1.28-.27,1.87-.41s1.11-.27,1.56-.39l.56,2.63-2.08.47c-.76.18-1.57.34-2.42.51s-1.71.33-2.59.49L29.52,47l-.18,2.55,2.59-.34V47l2.78-.3v2.15l4.93-.65v2.47Zm2.72-.23c.17.2.39.46.65.79s.54.69.83,1.08.58.79.86,1.2.54.81.77,1.18l-2.36,1.82c-.19-.35-.4-.74-.65-1.16s-.52-.82-.79-1.23-.55-.78-.82-1.14a10.36,10.36,0,0,0-.72-.91Z"/><path d="M56.25,46.26v2.22L41.61,50.4V48.19l3.27-.43.24-1-2.39.31V45.21l2.85-.37.21-.88-3.4.45v-2.2l13.08-1.72v2.2l-6.85.9-.21.87,6-.78-.15,2.85ZM43.06,50.93,54.8,49.38V55L43.06,56.56ZM45.64,54l6.45-.85V51.89l-6.45.85Zm2.09-6.63,3.87-.51.06-1L48,46.41Z"/><path d="M62.94,48.91c-.17.37-.39.79-.65,1.26s-.54.95-.84,1.44-.6,1-.9,1.43l-.85,1.25-2.34-1.13c.27-.36.56-.76.87-1.21s.61-.9.89-1.36.55-.92.79-1.36.44-.84.59-1.18Zm4-1.84v4.12a4.1,4.1,0,0,1-.13,1.17,1.81,1.81,0,0,1-.45.73,2.25,2.25,0,0,1-.81.45c-.33.12-.73.23-1.21.35l-1.17.28-.83-2.59.9-.21a2.37,2.37,0,0,0,.72-.28.63.63,0,0,0,.2-.55v-3.1l-5.59.73.58-7.74c.62-.08,1.28-.17,2-.28l2.11-.34,2.14-.39L67.41,39c.66-.14,1.29-.27,1.87-.41l1.57-.39.55,2.63-2.08.47-2.41.51-2.6.49-2.58.45-.17,2.55L64.14,45V42.75l2.78-.3V44.6L71.85,44v2.47Zm2.72-.23c.17.2.39.46.65.79s.54.69.83,1.08.58.79.86,1.2.54.81.77,1.18l-2.36,1.82c-.18-.35-.4-.74-.65-1.16s-.51-.83-.79-1.23l-.81-1.14c-.27-.36-.51-.67-.73-.91Z"/></g></g></svg>