<?xml version="1.0" encoding="UTF-8"?>
<svg width="70px" height="70px" viewBox="0 0 70 70" version="1.1" xmlns="http://www.w3.org/2000/svg" xmlns:xlink="http://www.w3.org/1999/xlink">
    <!-- Generator: Sketch 59.1 (86144) - https://sketch.com -->
    <title>Frequent updates</title>
    <desc>Created with Sketch.</desc>
    <g id="Frequent-updates" stroke="none" stroke-width="1" fill="none" fill-rule="evenodd">
        <g id="Group-73-Copy-3" transform="translate(6.000000, 7.000000)">
            <path d="M49.2287227,27.4336145 C42.6569947,27.4336145 36.7367893,30.2231144 32.5875729,34.682648 C28.8125398,38.7400134 26.5034771,44.1797815 26.5034771,50.1588601 C26.5034771,51.1050278 26.5613005,52.0376901 26.6736062,52.9535061" id="Oval" stroke="#434350" stroke-width="2" stroke-linecap="round" stroke-linejoin="round" stroke-dasharray="1.519999980926514,7.448000051498411" transform="translate(37.866100, 40.193560) rotate(-170.000000) translate(-37.866100, -40.193560) "></path>
            <path d="M28.406557,51.1318026 C40.9573636,51.1318026 51.1318026,40.9573636 51.1318026,28.406557 C51.1318026,15.8557504 40.9573636,5.6813114 28.406557,5.6813114 C15.8557504,5.6813114 5.6813114,15.8557504 5.6813114,28.406557" id="Oval" stroke="#434350" stroke-width="2" stroke-linecap="round" stroke-linejoin="round" transform="translate(28.406557, 28.406557) rotate(-105.000000) translate(-28.406557, -28.406557) "></path>
            <polygon id="Path-67" fill="#434350" transform="translate(50.737125, 24.300515) rotate(-15.000000) translate(-50.737125, -24.300515) " points="45.4210795 20.9306379 56.053171 20.8786569 50.9193647 27.7223729"></polygon>
            <polyline id="Path-68" stroke="#434350" stroke-width="2" stroke-linecap="round" points="28.6457999 14.8286499 28.6457999 29.0319284 42.8490784 29.0319284"></polyline>
        </g>
    </g>
</svg>