<?xml version="1.0" standalone="no"?><!DOCTYPE svg PUBLIC "-//W3C//DTD SVG 1.1//EN" "http://www.w3.org/Graphics/SVG/1.1/DTD/svg11.dtd"><svg class="icon" width="200px" height="200.00px" viewBox="0 0 1024 1024" version="1.1" xmlns="http://www.w3.org/2000/svg"><path d="M512 1024C229.234 1024 0 794.766 0 512S229.234 0 512 0s512 229.234 512 512-229.234 512-512 512z m259.157-568.889l-290.759 0.014c-13.966 0-25.287 11.321-25.287 25.273l-0.028 63.218c0 13.966 11.306 25.287 25.273 25.287H657.38c13.966 0 25.287 11.307 25.287 25.273v12.644a75.847 75.847 0 0 1-75.847 75.847H366.606a25.287 25.287 0 0 1-25.287-25.273v-240.2a75.847 75.847 0 0 1 75.847-75.846l353.92-0.015c13.966 0 25.273-11.306 25.287-25.273l0.071-63.189c0-13.966-11.306-25.287-25.272-25.301l-353.992 0.014c-104.718-0.014-189.624 84.892-189.624 189.61v353.963c0 13.967 11.32 25.287 25.287 25.287h372.935c94.265 0 170.666-76.401 170.666-170.666v-145.38c0-13.952-11.32-25.273-25.287-25.273z" fill="#d81e06" /></svg>