<?xml version="1.0" encoding="UTF-8"?>
<svg width="70px" height="70px" viewBox="0 0 70 70" version="1.1" xmlns="http://www.w3.org/2000/svg" xmlns:xlink="http://www.w3.org/1999/xlink">
    <!-- Generator: Sketch 59.1 (86144) - https://sketch.com -->
    <title>Hassel free licensing Copy</title>
    <desc>Created with Sketch.</desc>
    <g id="Hassel-free-licensing-Copy" stroke="none" stroke-width="1" fill="none" fill-rule="evenodd">
        <path d="M38.8045215,14.3844412 C38.6573723,15.0112933 38.5337263,15.6780778 38.4335835,16.3847949 L3,16.386002 C2.44771525,16.386002 2,16.8337173 2,17.386002 L2,60.386002 C2,60.9382868 2.44771525,61.386002 3,61.386002 L59.1132075,61.386002 C59.6654923,61.386002 60.1132075,60.9382868 60.1132075,60.386002 L60.113,47.1284412 L62.113,49.1614412 L62.1132075,60.386002 C62.1132075,62.0428563 60.7700618,63.386002 59.1132075,63.386002 L3,63.386002 C1.34314575,63.386002 0,62.0428563 0,60.386002 L0,17.386002 C0,15.7291478 1.34314575,14.386002 3,14.386002 L38.8045215,14.3844412 Z M10.4440814,48.6725171 L18.1776572,48.7386634 C18.7299218,48.7433869 19.1737914,49.194915 19.1691052,49.7471796 C19.1643443,50.2994441 18.7128162,50.7433138 18.1605516,50.7385902 L18.1605516,50.7385902 L10.4269758,50.672444 C9.87471126,50.6677204 9.43084161,50.2161923 9.43552785,49.6639278 C9.44028878,49.1116632 9.89181688,48.6677936 10.4440814,48.6725171 L10.4440814,48.6725171 Z M10.0036656,41.8592861 L28.0486758,41.9254391 C28.6009569,41.9274636 29.047028,42.376817 29.0450104,42.929098 C29.0429791,43.4813791 28.5936257,43.9274501 28.0413446,43.9254326 L28.0413446,43.9254326 L9.9963344,43.8592861 C9.44405336,43.857255 8.99798226,43.4079016 8.99999985,42.8556206 C9.00203117,42.3033396 9.45138456,41.8572685 10.0036656,41.8592861 L10.0036656,41.8592861 Z M53.5498631,6.49869603 C60.4238849,6.49869603 65.9963806,12.0711918 65.9963806,18.9452136 C65.9963806,21.99422 64.9000423,24.7871629 63.0800736,26.9513342 L69.4336227,36.3971948 L62.4906651,35.5037171 L60.6793263,42.956186 L53.849,32.500696 L46.734336,42.8788449 L44.8614043,35.4911088 L37.5556006,36.3924644 L44.194942,27.155286 C42.2703099,24.9640188 41.1033455,22.0908958 41.1033455,18.9452136 C41.1033455,12.0711918 46.6758412,6.49869603 53.5498631,6.49869603 Z M45.4118354,28.3629273 L41.187681,34.2392167 L46.1351246,33.6288245 L47.4550344,38.8351785 L52.5845287,31.3548505 C49.8517689,31.1452265 47.3660413,30.053089 45.4118354,28.3629273 Z M55.0843643,31.298075 L59.9581675,38.7578374 L61.2040425,33.6318808 L65.9938302,34.2482706 L61.8798022,28.1934849 C60.0317202,29.8591272 57.681845,30.9787197 55.0843643,31.298075 Z M53.5498631,8.19100372 C47.610477,8.19100372 42.7956532,13.0058275 42.7956532,18.9452136 C42.7956532,24.8845997 47.610477,29.6994235 53.5498631,29.6994235 C59.4892492,29.6994235 64.3040729,24.8845997 64.3040729,18.9452136 C64.3040729,13.0058275 59.4892492,8.19100372 53.5498631,8.19100372 Z M58.4976111,14.7338233 C58.882085,14.3373409 59.5151751,14.327606 59.9116575,14.7120798 C60.3081399,15.0965537 60.3178748,15.7296438 59.933401,16.1261263 L59.933401,16.1261263 L53.2673186,23.0004159 C52.8910631,23.3884232 52.2745952,23.4072545 51.8753583,23.0429362 L51.8753583,23.0429362 L48.2300063,19.7164177 C47.8220492,19.3441417 47.7931239,18.7116378 48.1653999,18.3036806 C48.5376759,17.8957235 49.1701798,17.8667982 49.5781369,18.2390742 L49.5781369,18.2390742 L52.5068838,20.9116639 Z" id="Combined-Shape" fill="#434350" fill-rule="nonzero"></path>
    </g>
</svg>