<?xml version="1.0" encoding="UTF-8"?>
<svg width="70px" height="70px" viewBox="0 0 70 70" version="1.1" xmlns="http://www.w3.org/2000/svg" xmlns:xlink="http://www.w3.org/1999/xlink">
    <!-- Generator: Sketch 59.1 (86144) - https://sketch.com -->
    <title>Performance</title>
    <desc>Created with Sketch.</desc>
    <g id="Performance" stroke="none" stroke-width="1" fill="none" fill-rule="evenodd">
        <g id="Group-28-Copy-4" transform="translate(14.000000, 4.000000)">
            <g id="Group-15">
                <path d="M34.9140787,31.8601191 C34.9140787,31.8601191 35.2278872,36.2942074 34.378866,39.7684721 C34.378866,39.7684721 40.0237596,39.9491338 42.1883979,43.2436632 C42.1883979,43.2436632 43.872717,33.6528397 34.9140787,31.8601191 Z" id="Stroke-1" stroke="#434350" stroke-width="2" stroke-linecap="round" stroke-linejoin="round"></path>
                <path d="M7.40020851,31.8601191 C7.40020851,31.8601191 7.0864,36.2942074 7.93450638,39.7684721 C7.93450638,39.7684721 2.28961277,39.9491338 0.125889362,43.2436632 C0.125889362,43.2436632 -1.55934468,33.6528397 7.40020851,31.8601191 Z" id="Stroke-2" stroke="#434350" stroke-width="2" stroke-linecap="round" stroke-linejoin="round"></path>
                <path d="M21.2111681,0 C42.8557213,19.7625441 33.6573809,43.9174853 33.6573809,43.9174853 L8.76495532,43.9174853 C8.76495532,43.9174853 -0.433385106,18.6646765 21.2111681,0 Z" id="Fill-3" fill="#FFFFFF"></path>
                <path d="M21.2111681,0 C42.8557213,19.7625441 33.6573809,43.9174853 33.6573809,43.9174853 L8.76495532,43.9174853 C8.76495532,43.9174853 -0.433385106,18.6646765 21.2111681,0 Z" id="Stroke-4" stroke="#434350" stroke-width="2" stroke-linecap="round" stroke-linejoin="round"></path>
                <path d="M27.5904468,26.7780574 C27.5904468,30.1040868 24.9281064,32.8001162 21.6436383,32.8001162 C18.3591702,32.8001162 15.6968298,30.1040868 15.6968298,26.7780574 C15.6968298,23.4520279 18.3591702,20.7559985 21.6436383,20.7559985 C24.9281064,20.7559985 27.5904468,23.4520279 27.5904468,26.7780574" id="Fill-5" fill="#FFFFFF"></path>
                <path d="M27.5904468,26.7780574 C27.5904468,23.4543441 24.9258191,20.7559985 21.6436383,20.7559985 C18.3615489,20.7559985 15.6968298,23.4543441 15.6968298,26.7780574 C15.6968298,30.1016779 18.3615489,32.8001162 21.6436383,32.8001162 C24.9258191,32.8001162 27.5904468,30.1016779 27.5904468,26.7780574 Z" id="Stroke-6" stroke="#434350" stroke-width="2" stroke-linecap="round" stroke-linejoin="round"></path>
                <polygon id="Fill-7" fill="#FFFFFF" points="23.2741617 51.3295279 20.2303106 51.3295279 18.7079277 42.0648221 24.7965447 42.0648221"></polygon>
                <polygon id="Stroke-8" stroke="#434350" stroke-width="2" stroke-linecap="round" stroke-linejoin="round" points="23.2741617 51.3295279 20.2303106 51.3295279 18.7079277 42.0648221 24.7965447 42.0648221"></polygon>
                <line x1="14.3244894" y1="51.3295279" x2="14.3244894" y2="55.9618809" id="Fill-9" fill="#FFFFFF"></line>
                <line x1="14.3244894" y1="50.4030574" x2="14.3244894" y2="55.4214397" id="Stroke-10" stroke="#434350" stroke-width="2"></line>
                <line x1="21.6436383" y1="55.9618809" x2="21.6436383" y2="62.447175" id="Fill-11" fill="#FFFFFF"></line>
                <line x1="21.6436383" y1="55.4214397" x2="21.6436383" y2="62.447175" id="Stroke-12" stroke="#434350" stroke-width="2"></line>
                <line x1="28.9627872" y1="51.3295279" x2="28.9627872" y2="55.9618809" id="Fill-13" fill="#FFFFFF"></line>
                <line x1="28.9627872" y1="50.4030574" x2="28.9627872" y2="55.4214397" id="Stroke-14" stroke="#434350" stroke-width="2"></line>
            </g>
        </g>
    </g>
</svg>