<?xml version="1.0" standalone="no"?><!DOCTYPE svg PUBLIC "-//W3C//DTD SVG 1.1//EN" "http://www.w3.org/Graphics/SVG/1.1/DTD/svg11.dtd"><svg t="1703048809268" class="icon" viewBox="0 0 1024 1024" version="1.1" xmlns="http://www.w3.org/2000/svg" xmlns:xlink="http://www.w3.org/1999/xlink" width="24" height="24"><path d="M512 831.508c16.264 0 29.792 11.72 32.597 27.176l0.534 5.955v62.23C545.13 945.167 530.298 960 512 960c-16.265 0-29.792-11.72-32.597-27.175l-0.534-5.956v-62.23c0-18.298 14.833-33.13 33.131-33.13z m267.584-97.826l5.197 4.245 44.002 44.002c12.938 12.938 12.938 33.916 0 46.854-11.321 11.321-28.797 12.736-41.656 4.245l-5.198-4.245-44.002-44.002c-12.938-12.938-12.938-33.915 0-46.854 11.321-11.32 28.797-12.736 41.657-4.245z m-493.511 4.246c11.32 11.32 12.736 28.796 4.245 41.656l-4.246 5.197-44.002 44.002c-12.939 12.938-33.916 12.938-46.854 0-11.32-11.321-12.736-28.797-4.245-41.657l4.245-5.197 44.003-44.002c12.938-12.938 33.916-12.938 46.854 0zM512 274.932c130.929 0 237.068 106.14 237.068 237.068 0 130.929-106.14 237.068-237.068 237.068-130.929 0-237.068-106.14-237.068-237.068 0-130.929 106.14-237.068 237.068-237.068z m414.87 203.937c18.297 0 33.13 14.833 33.13 33.131 0 16.264-11.72 29.792-27.175 32.597l-5.956 0.534h-62.23c-18.298 0-33.13-14.833-33.13-33.131 0-16.265 11.72-29.792 27.175-32.597l5.955-0.534h62.23z m-767.509 0c18.298 0 33.13 14.833 33.13 33.131 0 16.264-11.72 29.792-27.175 32.597l-5.955 0.534h-62.23C78.833 545.13 64 530.298 64 512c0-16.265 11.72-29.792 27.175-32.597l5.956-0.534h62.23z m669.422-283.653c11.321 11.32 12.736 28.797 4.246 41.656l-4.246 5.198-44.002 44.002c-12.938 12.939-33.915 12.94-46.853 0-11.322-11.32-12.737-28.796-4.246-41.656l4.245-5.197 44.002-44.003c12.938-12.938 33.915-12.938 46.854 0z m-591.91-4.245l5.197 4.245 44.003 44.003c12.938 12.938 12.938 33.915 0 46.854-11.321 11.32-28.797 12.736-41.657 4.245l-5.197-4.245-44.003-44.003c-12.938-12.938-12.938-33.915 0-46.854 11.321-11.32 28.797-12.736 41.657-4.245zM512 64c16.264 0 29.792 11.72 32.597 27.175l0.534 5.956v62.23c0 18.298-14.833 33.13-33.131 33.13-16.265 0-29.792-11.72-32.597-27.175l-0.534-5.955v-62.23C478.87 78.833 493.702 64 512 64z" fill="#e6e6e6"></path></svg>
