<svg xmlns:svg="http://www.w3.org/2000/svg" xmlns="http://www.w3.org/2000/svg" version="1.1" x="0px" y="0px" viewBox="0 0 750 134.1" enable-background="new 0 0 750 134.1" width="750" height="134.1" xml:space="preserve"><defs/><g><g><path d="M335 21.5c1 0 1 0.7 1 1.3L335.2 36c-0.1 1.2-0.7 1.2-1.4 1.2h-2.5c-0.7 0-1.2-0.3-1.3-1.2l-0.8-7.9 c0-0.8-0.4-1-1.1-1l-13.9-0.3V77c0 2.5 0.1 3.4 2.4 3.6l3.7 0.4c0.6 0.1 0.9 0.4 0.9 1.1v2.9c0 0.6-0.3 0.9-1.1 0.9h-19.2 c-0.8 0-1.1-0.3-1.1-0.9V82c0-0.6 0.3-1 0.9-1.1l3.7-0.4c2.3-0.2 2.4-1.2 2.4-3.4V26.9l-14.1 0.3c-0.7 0-1 0.4-1 0.9L291 36 c-0.1 0.8-0.6 1.2-1.3 1.2h-2.4c-0.9 0-1.3-0.3-1.4-1.2l-0.7-13.1c0-0.6 0-1.3 1-1.3H335z" fill="#1D3949"/><path d="M336.9 56.2c0-11.1 6.2-15.9 19.7-15.9c13.3 0 19.6 4.6 19.6 15.9v14.6c0 11.2-6.2 15.9-19.7 15.9 c-13.7 0-19.6-4.7-19.6-15.9V56.2z M369 56.2c0-7.3-3.7-10.2-12.3-10.2c-8.7 0-12.3 2.9-12.3 10.2v14.6c0 7.8 4 10.2 12.2 10.2 S369 78.6 369 70.8V56.2z" fill="#1D3949"/><path d="M417 42.6l-0.7 10.6c-0.1 1-0.5 1.2-1.2 1.2h-2.8c-0.7 0-1.2-0.3-1.2-1.2l-0.7-6.9 c-3.7 0.2-8.1 2.4-11.5 5.2v27c0 1.5 0.6 2 2.7 2.2l4.4 0.4c0.7 0.1 0.9 0.4 0.9 1.1v2.7c0 0.5-0.2 0.9-0.8 0.9h-18.7 c-0.5 0-0.8-0.3-0.8-0.8v-2.8c0-0.6 0.3-1 0.8-1.1l1.7-0.3c2.3-0.4 2.7-0.8 2.7-2.1V48.7c0-1.6-0.5-2.1-2-2.2l-2.2-0.3 c-0.7-0.2-1.1-0.3-1.1-1.2v-2.1c0-0.8 0.3-1.1 1.2-1.2l4.5-0.7c1.6-0.3 2.9-0.4 4.2-0.4c2.1 0 2.6 1.2 2.6 2.6v2.9 c4.2-3.4 8.9-5.8 14.3-5.8C415.5 40.3 417.1 40.5 417 42.6z" fill="#1D3949"/><path d="M429.3 46.5h-4.2c-0.8 0-1.2-0.4-1.2-1.2v-3c0-0.8 0.4-1.2 1.2-1.2h2c4.1 0 4.1-5.3 5-9.4 c0.3-0.9 0.7-1.2 1.5-1.2h1.9c0.8 0 1.2 0.4 1.2 1.2v9.5h9.4c0.8 0 1.2 0.4 1.2 1.2v3c0 0.8-0.4 1.2-1.2 1.2h-9.5V77 c0 3.3 1.3 4.3 4.6 4.3c2.5 0 5.4-0.5 6.2-0.6c0.6-0.1 1 0.2 1 0.7v2.9c0 1-0.4 1.2-1 1.3c-1.2 0.4-5.2 1-8.5 1 c-7.1 0-9.5-3.3-9.5-9V46.5z" fill="#1D3949"/><path d="M457.2 56.2c0-11.1 6.2-15.9 19.7-15.9c13.3 0 19.6 4.6 19.6 15.9v14.6c0 11.2-6.2 15.9-19.7 15.9 c-13.7 0-19.6-4.7-19.6-15.9V56.2z M489.3 56.2c0-7.3-3.7-10.2-12.3-10.2c-8.7 0-12.3 2.9-12.3 10.2v14.6c0 7.8 4 10.2 12.2 10.2 s12.4-2.4 12.4-10.2V56.2z" fill="#1D3949"/><path d="M511.2 49.2c0-1.6-0.6-2.1-2.1-2.2l-2.1-0.4c-0.8-0.1-1.1-0.2-1.1-1.1v-2.1c0-0.8 0.3-1.1 1.2-1.2l4.4-0.7 c1.6-0.3 2.9-0.5 4.3-0.5c2.1 0 2.6 1.2 2.6 2.7V78c0 2.6 0.9 3.1 2.7 3.1c0.5 0 0.8 0 1.9-0.2c0.7-0.2 1.2 0 1.2 0.8V85 c0 0.6-0.3 0.9-1 1.1c-1 0.3-2.8 0.4-4.5 0.4c-6.2 0-7.5-3.4-7.5-7.9V49.2z M515.7 23.4c2.8 0 3.4 1.2 3.4 3.3v1.5 c0 2.1-0.6 3.2-3.4 3.2h-2.1c-2.8 0-3.3-1.1-3.3-3.2v-1.4c0-2.1 0.5-3.4 3.3-3.4H515.7z" fill="#1D3949"/><path d="M559.3 74.2c0-4-2.7-5.4-6.9-6.9c-3.8-1.2-9.1-2.6-12.7-4.2c-3.7-1.6-6.5-3.7-6.5-10.7 c0-12 9.5-12.1 16.2-12.1c5 0 12 0.4 14.4 1.2c1 0.4 1 0.7 1 1.3l-0.7 9.5c-0.1 0.8-0.4 1.2-1.2 1.2h-2.1c-0.9 0-1.3-0.2-1.5-1.2 l-1.2-6.2c-2.7-0.4-4.6-0.5-8.7-0.5c-6.8 0-9.5 1.1-9.5 6.2c0 4.6 2.1 5.7 6.4 7.2c1.3 0.4 10.3 3 13.2 4.2c4 1.7 6.5 4.5 6.5 10.4 c0 10.2-7 12.8-17.7 12.8c-5.9 0-12.5-1-14.7-1.6c-1.2-0.3-1.3-0.5-1.3-1.3V80c0-0.8 0.4-1.1 1.4-0.9c3 0.7 9.4 1.8 13.8 1.8 C555.1 80.9 559.3 79.2 559.3 74.2z" fill="#1D3949"/><path d="M584.6 66.9v1.1c0 9 1.5 13.1 13.3 13.1c5.9 0 9.9-0.7 14.6-1.6c1.7-0.3 2-0.2 2 1v3c0 1.2-0.3 1.3-1.7 1.7 c-3.2 0.6-10 1.5-16 1.5c-15.5 0-19.5-5.9-19.5-18.8v-9.5c0-15.6 7.6-18 19.3-18c12 0 17.7 2.3 17.7 13.7 c0 11.4-4.7 12.9-18.9 12.9H584.6z M584.6 61.7h10.5c10.4 0 12-1 12-7.6c0-6.4-2.2-8.7-10.5-8.7c-9.1 0-12 2.5-12 12.5V61.7z" fill="#1D3949"/><path d="M641.5 63.5c0 8.5 3.9 12.1 15.4 12.1c4.6 0 7.9-0.3 10.6-0.7V63.1c0-0.6-0.3-1.2-1-1.2l-5-0.4 c-0.9-0.1-1.3-0.6-1.3-1.4v-5.4c0-1 0.4-1.3 1.5-1.3H680c0.9 0 1.3 0.4 1.3 1.3v27.5c0 1.2-0.1 1.5-1.9 2.1 c-2.9 0.9-13 2.5-23.2 2.5c-19.5 0-30-4.2-30-23.3V43.6c0-16 9.5-22.6 29.7-22.6c17.8 0 22.3 0.9 24.5 1.3c0.9 0.2 0.9 0.4 0.9 1.1 l-0.7 16.5c0 1-0.6 1.2-1.6 1.2h-6.2c-0.9 0-1.3-0.3-1.5-1.2l-1.8-8.1c-1.6-0.1-8.9-0.6-12.7-0.6c-10 0-15.4 5.3-15.4 12.2 L641.5 63.5z" fill="#1D3949"/><path d="M696.9 54.2c0-2.9-0.4-3-2.7-3.6l-1.6-0.4c-0.8-0.2-1-0.4-1-1.3v-5c0-1 0.2-1.4 1.4-1.6l8.8-1.3 c2.1-0.4 3.9-0.7 5.2-0.7c3 0 3.7 1.5 3.7 3.9V74c0 2.5 0.7 3.2 2.1 3.2c0.7 0 1.2 0 2.2-0.2c0.7 0 1.2 0 1.2 1.2v6.2 c0 0.7-0.3 1.1-1 1.3c-1.3 0.4-4.2 0.8-8.2 0.8c-8.7 0-10.1-5-10.1-10.8V54.2z M706.1 21.5c4.8 0 5.3 2.6 5.3 5.8v1.5 c0 3.2-0.4 5.8-5.3 5.8h-5c-4.8 0-5.3-2.6-5.3-5.8v-1.2c0-3.3 0.4-6.1 5.3-6.1H706.1z" fill="#1D3949"/><path d="M724.2 50.4H720c-0.8 0-1.2-0.4-1.2-1.2v-6.9c0-0.8 0.4-1.2 1.2-1.2h2.7c4.9 0 6.4-7.2 7.5-9.5 c0.7-1.6 1.9-1.8 3.1-1.8h3.7c0.8 0 1.2 0.4 1.2 1.2v10.1h9.4c0.8 0 1.2 0.4 1.2 1.2v6.9c0 0.8-0.4 1.2-1.2 1.2H738V73 c0 3 1.8 4.1 5.4 4.1c2.1 0 4.9-0.4 5.4-0.4c0.6 0 0.9 0.4 0.9 0.9v6.2c0 1.3-0.5 1.4-1.2 1.6c-2 0.5-5 1.2-10.3 1.2 c-8.7 0-14.1-1.7-14.1-11.7V50.4z" fill="#1D3949"/></g><g><path d="M306.2 116.7c-0.4 0-0.5-0.1-0.6-0.5l-5.4-18.5l-5.1 18.5l0 0v0c-0.1 0.3-0.2 0.5-0.5 0.5H293 c-0.3 0-0.4-0.1-0.6-0.5L286.2 96c-0.2-0.8-0.4-1.2-1-1.3l-0.9-0.1c-0.2 0-0.2-0.1-0.2-0.4v-1.1c0-0.2 0.1-0.3 0.3-0.3h6 c0.3 0 0.4 0.1 0.4 0.4v1c0 0.2-0.1 0.4-0.3 0.4l-1.2 0.1c-0.3 0-0.5 0.3-0.3 0.9l5.1 17.3l5-18.8c0.1-0.2 0.2-0.3 0.4-0.3h2.1 c0.3 0 0.3 0.1 0.4 0.2l5.3 18.5l5-17.1c0.2-0.5 0-0.7-0.4-0.8l-1-0.1c-0.2 0-0.3-0.2-0.3-0.4v-1c0-0.3 0.1-0.4 0.3-0.4h5.2 c0.2 0 0.4 0.1 0.4 0.4v1.1c0 0.2-0.1 0.4-0.3 0.4l-0.9 0.1c-0.6 0.1-0.8 0.4-1 1l-6.1 20.2c-0.2 0.6-0.3 0.8-0.7 0.8H306.2z" fill="#1D394A"/><path d="M319.9 103.1c0-0.6-0.2-0.8-0.8-0.8l-0.8-0.1c-0.3 0-0.4-0.1-0.4-0.4v-0.8c0-0.3 0.1-0.4 0.5-0.5l1.6-0.3 c0.6-0.1 1.1-0.2 1.6-0.2c0.8 0 1 0.5 1 1v12.8c0 1 0.3 1.2 1 1.2c0.2 0 0.3 0 0.7-0.1c0.3-0.1 0.4 0 0.4 0.3v1.2 c0 0.2-0.1 0.3-0.4 0.4c-0.4 0.1-1 0.2-1.7 0.2c-2.3 0-2.8-1.3-2.8-3V103.1z M321.5 93.5c1 0 1.3 0.4 1.3 1.2v0.6 c0 0.8-0.2 1.2-1.3 1.2h-0.8c-1 0-1.2-0.4-1.2-1.2v-0.5c0-0.8 0.2-1.3 1.2-1.3H321.5z" fill="#1D394A"/><path d="M329.6 102.9c0-0.6-0.2-0.8-0.7-0.8L328 102c-0.3-0.1-0.4-0.1-0.4-0.4v-0.8c0-0.3 0.1-0.4 0.5-0.5l1.7-0.3 c0.6-0.1 1.1-0.2 1.6-0.2c0.8 0 1 0.4 1 1v0.6c1.8-1 3.8-1.7 6-1.7c2.3 0 4.5 0.8 4.5 4.8v9.2c0 1 0.3 1.2 1 1.2 c0.2 0 0.3 0 0.7-0.1c0.3-0.1 0.4 0 0.4 0.3v1.2c0 0.2-0.1 0.3-0.4 0.4c-0.4 0.1-1 0.2-1.7 0.2c-2.3 0-2.8-1.3-2.8-3v-9.1 c0-2.3-1.1-2.9-2.6-2.9c-1.7 0-3.7 0.7-5.2 1.6v10.5c0 0.6 0.1 0.7 1 0.8l0.6 0.1c0.2 0 0.3 0.1 0.3 0.4v1c0 0.2-0.1 0.4-0.3 0.4 H328c-0.2 0-0.4-0.1-0.4-0.4v-1c0-0.2 0.1-0.4 0.3-0.4l0.6-0.1c0.9-0.1 1-0.3 1-0.8V102.9z" fill="#1D394A"/><path d="M362 113.8c0 1 0.4 1.2 1 1.2c0.2 0 0.3 0 0.7-0.1c0.3-0.1 0.4 0 0.4 0.3v1.2c0 0.2-0.1 0.3-0.4 0.4 c-0.3 0.1-1 0.2-1.6 0.2c-1.3 0-2-0.4-2.4-1c-1.3 0.6-3.3 1.1-5.5 1.1c-4.5 0-5.9-2-5.9-6.4v-4.4c0-4.4 1.4-6.4 5.9-6.4 c2.1 0 4 0.4 5.1 0.8v-6.2c0-0.6-0.2-0.7-0.7-0.8l-0.9-0.1c-0.3 0-0.4-0.2-0.4-0.5v-0.8c0-0.3 0.1-0.3 0.4-0.4l1.7-0.3 c0.7-0.1 1.2-0.2 1.7-0.2c0.6 0 0.8 0.4 0.8 0.8V113.8z M355.1 101.8c-2.7 0-4 0.9-4 4.4v4.5c0 3.5 1.3 4.4 4 4.4 c1.4 0 3.1-0.4 4.2-0.8v-11.6C358 102.2 356.7 101.8 355.1 101.8z" fill="#1D394A"/><path d="M367.5 105.7c0-4.1 2.3-5.9 7.3-5.9c4.9 0 7.3 1.7 7.3 5.9v5.4c0 4.2-2.3 5.9-7.3 5.9 c-5.1 0-7.3-1.8-7.3-5.9V105.7z M379.5 105.7c0-2.7-1.4-3.8-4.6-3.8c-3.2 0-4.6 1.1-4.6 3.8v5.4c0 2.9 1.5 3.8 4.6 3.8 c3.1 0 4.6-0.9 4.6-3.8V105.7z" fill="#1D394A"/><path d="M386.7 103.2c-0.4-1-0.5-1.1-1.2-1.2l-0.7-0.1c-0.2 0-0.3-0.2-0.3-0.4v-1c0-0.2 0.1-0.3 0.3-0.3h5.8 c0.3 0 0.3 0.1 0.3 0.3v1c0 0.2-0.1 0.4-0.3 0.4l-0.6 0.1c-0.9 0.1-0.9 0.2-0.7 0.8l3.3 10.4l3.8-11.8c0.1-0.3 0.2-0.4 0.4-0.4h1.4 c0.3 0 0.3 0.1 0.4 0.4l3.7 11.8l3.7-10.4c0.2-0.6 0.1-0.7-0.8-0.8l-0.6-0.1c-0.2 0-0.3-0.2-0.3-0.4v-0.9c0-0.3 0.1-0.4 0.4-0.4 h5.2c0.2 0 0.3 0.1 0.3 0.3v1.1c0 0.2-0.1 0.3-0.3 0.4l-0.7 0.1c-0.7 0.1-0.9 0.3-1.1 1l-4.8 13.5c-0.1 0.3-0.2 0.3-0.5 0.3h-1.5 c-0.3 0-0.4-0.1-0.5-0.4l-3.6-11.1l-3.6 11.1c-0.1 0.3-0.2 0.3-0.5 0.3h-1.5c-0.3 0-0.3-0.1-0.4-0.3L386.7 103.2z" fill="#1D394A"/><path d="M422.7 112.4c0-1.5-1-2-2.6-2.6c-1.4-0.5-3.4-1-4.7-1.6c-1.4-0.6-2.4-1.4-2.4-4c0-4.5 3.5-4.5 6-4.5 c1.9 0 4.5 0.2 5.3 0.4c0.4 0.1 0.4 0.3 0.4 0.5l-0.3 3.5c0 0.3-0.2 0.4-0.4 0.4h-0.8c-0.3 0-0.5-0.1-0.6-0.4l-0.4-2.3 c-1-0.1-1.7-0.2-3.2-0.2c-2.5 0-3.5 0.4-3.5 2.3c0 1.7 0.8 2.1 2.4 2.7c0.5 0.2 3.8 1.1 4.9 1.6c1.5 0.6 2.4 1.7 2.4 3.9 c0 3.8-2.6 4.8-6.6 4.8c-2.2 0-4.7-0.4-5.5-0.6c-0.4-0.1-0.5-0.2-0.5-0.5v-1.3c0-0.3 0.2-0.4 0.5-0.3c1.1 0.3 3.5 0.7 5.1 0.7 C421.1 114.9 422.7 114.3 422.7 112.4z" fill="#1D394A"/><path d="M450 110.7c0-2.6-1.1-3.2-3.2-4.1l-5.9-2.2c-2.3-0.8-3.2-2.8-3.2-5.9c0-4.9 2.7-5.9 7.3-5.9 c2.2 0 5.7 0.3 6.7 0.6c0.4 0.1 0.4 0.3 0.4 0.6l-0.3 4.1c0 0.4-0.1 0.6-0.4 0.6h-0.8c-0.4 0-0.5-0.2-0.5-0.6l-0.5-2.9 c-0.9-0.2-2.8-0.3-4.2-0.3c-3.5 0-4.9 0.8-4.9 3.9c0 2.5 0.8 3.3 3.2 4.2l5.8 2.1c2.3 0.9 3.3 2.6 3.3 5.7c0 5-3.1 6.3-8 6.3 c-2.9 0-5.8-0.4-7-0.8c-0.3-0.1-0.4-0.2-0.4-0.5v-1.4c0-0.4 0.3-0.4 0.6-0.4c0.9 0.2 3.8 0.9 6.6 0.9 C448.6 114.8 450 113.3 450 110.7z" fill="#1D394A"/><path d="M460.5 101.5c1.8-1 3.8-1.7 6.1-1.7c2.3 0 4.5 0.8 4.5 4.8v9.2c0 1 0.3 1.2 1 1.2c0.2 0 0.3 0 0.7-0.1 c0.3-0.1 0.4 0 0.4 0.3v1.2c0 0.2-0.1 0.3-0.4 0.4c-0.4 0.1-1 0.2-1.7 0.2c-2.3 0-2.8-1.3-2.8-3v-9.1c0-2.3-1.1-2.9-2.7-2.9 c-1.7 0-3.6 0.7-5.2 1.6v10.5c0 0.6 0.1 0.7 1 0.8l0.6 0.1c0.2 0 0.3 0.1 0.3 0.4v1c0 0.2-0.1 0.4-0.4 0.4h-5.8 c-0.2 0-0.3-0.1-0.3-0.4v-1c0-0.2 0.1-0.4 0.3-0.4l0.6-0.1c0.9-0.1 1-0.3 1-0.8V94.4c0-0.6-0.2-0.7-0.8-0.8l-0.9-0.1 c-0.3 0-0.3-0.2-0.3-0.5v-0.8c0-0.3 0.1-0.3 0.4-0.4l1.7-0.3c0.7-0.1 1.2-0.2 1.7-0.2c0.6 0 0.8 0.4 0.8 0.8V101.5z" fill="#1D394A"/><path d="M479.1 109.7v0.4c0 3.4 0.6 4.9 5 4.9c2.2 0 3.7-0.3 5.4-0.6c0.6-0.1 0.7-0.1 0.7 0.4v1.1 c0 0.4-0.1 0.5-0.6 0.6c-1.2 0.2-3.7 0.6-5.9 0.6c-5.8 0-7.3-2.2-7.3-7v-3.6c0-5.8 2.8-6.7 7.2-6.7c4.5 0 6.6 0.9 6.6 5.1 c0 4.3-1.8 4.8-7 4.8H479.1z M479.1 107.8h3.9c3.9 0 4.5-0.4 4.5-2.8c0-2.4-0.8-3.2-3.9-3.2c-3.4 0-4.5 0.9-4.5 4.7V107.8z" fill="#1D394A"/><path d="M494.1 94.4c0-0.6-0.2-0.7-0.8-0.8l-0.9-0.1c-0.3 0-0.3-0.2-0.3-0.5v-0.8c0-0.3 0.1-0.3 0.4-0.4l1.7-0.3 c0.7-0.1 1.2-0.2 1.7-0.2c0.6 0 0.8 0.4 0.8 0.8v21.8c0 1 0.3 1.2 1 1.2c0.2 0 0.3 0 0.7-0.1c0.3-0.1 0.4 0 0.4 0.3v1.2 c0 0.2-0.1 0.3-0.4 0.4c-0.4 0.1-1 0.2-1.7 0.2c-2.3 0-2.8-1.3-2.8-3V94.4z" fill="#1D394A"/><path d="M503.4 94.4c0-0.6-0.2-0.7-0.8-0.8l-0.9-0.1c-0.3 0-0.3-0.2-0.3-0.5v-0.8c0-0.3 0.1-0.3 0.4-0.4l1.7-0.3 c0.7-0.1 1.2-0.2 1.7-0.2c0.6 0 0.8 0.4 0.8 0.8v21.8c0 1 0.3 1.2 1 1.2c0.2 0 0.3 0 0.7-0.1c0.3-0.1 0.4 0 0.4 0.3v1.2 c0 0.2-0.1 0.3-0.4 0.4c-0.4 0.1-1 0.2-1.7 0.2c-2.3 0-2.8-1.3-2.8-3V94.4z" fill="#1D394A"/><path d="M527 114.9c0.3 0 0.3 0.1 0.3 0.4v1c0 0.3-0.1 0.4-0.4 0.4h-6.6c-0.3 0-0.4-0.1-0.4-0.4v-1 c0-0.3 0.1-0.4 0.3-0.4l1.1-0.1c0.7-0.1 0.9-0.3 0.9-1.2V95.9c0-0.9-0.1-1.2-0.9-1.2l-0.8-0.1c-0.2 0-0.3-0.1-0.3-0.4v-1.1 c0-0.2 0.1-0.3 0.4-0.3h6c0.3 0 0.4 0.1 0.4 0.3v1.1c0 0.3-0.1 0.4-0.3 0.4l-0.8 0.1c-0.8 0.1-0.9 0.4-0.9 1.3v17.5 c0 1 0.1 1.3 0.9 1.3L527 114.9z" fill="#1D394A"/><path d="M532.7 102.9c0-0.6-0.2-0.8-0.7-0.8l-0.8-0.1c-0.3-0.1-0.4-0.1-0.4-0.4v-0.8c0-0.3 0.1-0.4 0.5-0.5l1.7-0.3 c0.6-0.1 1.1-0.2 1.6-0.2c0.8 0 1 0.4 1 1v0.6c1.8-1 3.8-1.7 6-1.7c2.3 0 4.5 0.8 4.5 4.8v9.2c0 1 0.3 1.2 1 1.2 c0.2 0 0.3 0 0.7-0.1c0.3-0.1 0.4 0 0.4 0.3v1.2c0 0.2-0.1 0.3-0.4 0.4c-0.4 0.1-1 0.2-1.7 0.2c-2.3 0-2.8-1.3-2.8-3v-9.1 c0-2.3-1.1-2.9-2.6-2.9c-1.7 0-3.7 0.7-5.2 1.6v10.5c0 0.6 0.1 0.7 1 0.8l0.6 0.1c0.2 0 0.3 0.1 0.3 0.4v1c0 0.2-0.1 0.4-0.3 0.4 h-5.8c-0.2 0-0.4-0.1-0.4-0.4v-1c0-0.2 0.1-0.4 0.3-0.4l0.6-0.1c0.9-0.1 1-0.3 1-0.8V102.9z" fill="#1D394A"/><path d="M551.9 102.1h-1.6c-0.3 0-0.4-0.1-0.4-0.4v-1.1c0-0.3 0.1-0.4 0.4-0.4h0.7c1.5 0 1.5-2 1.9-3.5 c0.1-0.3 0.3-0.5 0.6-0.5h0.7c0.3 0 0.4 0.1 0.4 0.4v3.5h3.5c0.3 0 0.4 0.1 0.4 0.4v1.1c0 0.3-0.1 0.4-0.4 0.4h-3.5v11.4 c0 1.2 0.5 1.6 1.7 1.6c0.9 0 2-0.2 2.3-0.2c0.2 0 0.4 0.1 0.4 0.3v1.1c0 0.4-0.1 0.4-0.4 0.5c-0.4 0.1-1.9 0.4-3.2 0.4 c-2.6 0-3.6-1.2-3.6-3.4V102.1z" fill="#1D394A"/><path d="M565 109.7v0.4c0 3.4 0.6 4.9 5 4.9c2.2 0 3.7-0.3 5.4-0.6c0.6-0.1 0.7-0.1 0.7 0.4v1.1 c0 0.4-0.1 0.5-0.6 0.6c-1.2 0.2-3.7 0.6-5.9 0.6c-5.8 0-7.3-2.2-7.3-7v-3.6c0-5.8 2.8-6.7 7.2-6.7c4.5 0 6.6 0.9 6.6 5.1 c0 4.3-1.8 4.8-7 4.8H565z M565 107.8h3.9c3.9 0 4.5-0.4 4.5-2.8c0-2.4-0.8-3.2-3.9-3.2c-3.4 0-4.5 0.9-4.5 4.7V107.8z" fill="#1D394A"/><path d="M591.3 100.6l-0.3 4c0 0.4-0.2 0.5-0.4 0.5h-1c-0.3 0-0.4-0.1-0.5-0.5l-0.3-2.6c-1.4 0.1-3 0.9-4.3 1.9v10 c0 0.6 0.2 0.7 1 0.8l1.6 0.2c0.3 0 0.3 0.1 0.3 0.4v1c0 0.2-0.1 0.3-0.3 0.3h-7c-0.2 0-0.3-0.1-0.3-0.3v-1c0-0.2 0.1-0.4 0.3-0.4 l0.6-0.1c0.9-0.1 1-0.3 1-0.8v-11.2c0-0.6-0.2-0.8-0.7-0.8l-0.8-0.1c-0.3-0.1-0.4-0.1-0.4-0.4v-0.8c0-0.3 0.1-0.4 0.5-0.5l1.7-0.3 c0.6-0.1 1.1-0.2 1.6-0.2c0.8 0 1 0.4 1 1v1.1c1.6-1.3 3.3-2.2 5.3-2.2C590.8 99.8 591.4 99.9 591.3 100.6z" fill="#1D394A"/><path d="M597.3 102.1h-2c-0.3 0-0.4-0.1-0.4-0.4v-1.1c0-0.3 0.1-0.4 0.3-0.4h2v-4c0-3.3 1.3-4.9 4.8-4.9 c1.2 0 2.9 0.2 3.5 0.4c0.4 0.1 0.4 0.3 0.4 0.5l-0.3 3.4c0 0.4-0.2 0.5-0.5 0.5h-0.8c-0.3 0-0.4-0.1-0.5-0.5l-0.2-2.1 c-0.3-0.1-1.1-0.1-1.4-0.1c-1.8 0-2.4 1.3-2.4 2.9v4h3.3c0.3 0 0.3 0.1 0.3 0.4v1.1c0 0.3-0.1 0.4-0.4 0.4H600V114 c0 0.6 0.2 0.7 0.9 0.8l1.5 0.2c0.3 0 0.3 0.1 0.3 0.4v1c0 0.2-0.1 0.4-0.4 0.4h-6.6c-0.2 0-0.4-0.1-0.4-0.4v-1 c0-0.2 0.1-0.4 0.3-0.4l0.6-0.1c0.9-0.1 1-0.3 1-0.9V102.1z" fill="#1D394A"/><path d="M620.7 113.8c0 1 0.4 1.2 1 1.2c0.2 0 0.3 0 0.7-0.1c0.3-0.1 0.4 0 0.4 0.3v1.2c0 0.2-0.1 0.3-0.4 0.4 c-0.3 0.1-1 0.2-1.6 0.2c-1.4 0-2.1-0.4-2.5-1.1c-1.1 0.5-3 1.2-5.2 1.2c-4.9 0-5.7-2.1-5.7-4.5v-0.9c0-2.4 0.8-4.7 5.8-4.7 c2 0 3.6 0.1 4.8 0.2v-1.9c0-2.8-0.7-3.5-3.6-3.5c-1.2 0-2.7 0.1-3.7 0.2l-0.4 2.6c0 0.4-0.1 0.5-0.5 0.5H609 c-0.4 0-0.4-0.1-0.5-0.5l-0.2-3.5c0-0.4-0.2-0.8 0.3-0.9c0.6-0.2 3.5-0.4 5.9-0.4c3.9 0 6.2 0.5 6.2 5.5V113.8z M610.1 112.6 c0 1.9 1 2.5 3.4 2.5c1.8 0 3.1-0.4 4.5-1.1v-4.8c-1.8-0.1-3-0.2-4.6-0.2c-2.4 0-3.3 0.9-3.3 2.6V112.6z" fill="#1D394A"/><path d="M628.7 110.1c0 3.6 1.4 4.8 4.7 4.8c2.3 0 4.6-0.5 5.1-0.6c0.3-0.1 0.4 0.1 0.4 0.5v1.2 c0 0.3-0.1 0.4-0.4 0.4c-0.9 0.3-3.3 0.6-5.4 0.6c-5.6 0-7.2-2.5-7.2-7v-3.7c0-4.2 2.1-6.5 7.1-6.5c1.4 0 4.2 0.1 5.1 0.4 c0.4 0.1 0.4 0.2 0.4 0.5l-0.3 4.1c0 0.4-0.1 0.4-0.5 0.4h-0.9c-0.2 0-0.4-0.1-0.4-0.4l-0.4-2.8c-0.8-0.1-2.1-0.2-3.1-0.2 c-3.2 0-4.3 2-4.3 4.5V110.1z" fill="#1D394A"/><path d="M645.7 109.7v0.4c0 3.4 0.6 4.9 5 4.9c2.2 0 3.7-0.3 5.4-0.6c0.6-0.1 0.7-0.1 0.7 0.4v1.1 c0 0.4-0.1 0.5-0.6 0.6c-1.2 0.2-3.7 0.6-5.9 0.6c-5.8 0-7.3-2.2-7.3-7v-3.6c0-5.8 2.8-6.7 7.2-6.7c4.5 0 6.6 0.9 6.6 5.1 c0 4.3-1.8 4.8-7 4.8H645.7z M645.7 107.8h3.9c3.9 0 4.5-0.4 4.5-2.8c0-2.4-0.8-3.2-3.9-3.2c-3.4 0-4.5 0.9-4.5 4.7V107.8z" fill="#1D394A"/><path d="M670.8 102.1h-1.6c-0.3 0-0.4-0.1-0.4-0.4v-1.1c0-0.3 0.1-0.4 0.4-0.4h0.7c1.5 0 1.5-2 1.9-3.5 c0.1-0.3 0.3-0.5 0.6-0.5h0.7c0.3 0 0.4 0.1 0.4 0.4v3.5h3.5c0.3 0 0.4 0.1 0.4 0.4v1.1c0 0.3-0.1 0.4-0.4 0.4h-3.5v11.4 c0 1.2 0.5 1.6 1.7 1.6c0.9 0 2-0.2 2.3-0.2c0.2 0 0.4 0.1 0.4 0.3v1.1c0 0.4-0.1 0.4-0.4 0.5c-0.4 0.1-1.9 0.4-3.2 0.4 c-2.6 0-3.6-1.2-3.6-3.4V102.1z" fill="#1D394A"/><path d="M681.2 105.7c0-4.1 2.3-5.9 7.3-5.9c5 0 7.3 1.7 7.3 5.9v5.4c0 4.2-2.3 5.9-7.3 5.9c-5.1 0-7.3-1.8-7.3-5.9 V105.7z M693.1 105.7c0-2.7-1.4-3.8-4.6-3.8c-3.2 0-4.6 1.1-4.6 3.8v5.4c0 2.9 1.5 3.8 4.6 3.8c3.1 0 4.6-0.9 4.6-3.8V105.7z" fill="#1D394A"/><path d="M712 108.2c0 4.2 1.5 6.7 6.8 6.7c2.9 0 4.5-0.2 5.6-0.5v-6.9c0-0.3-0.1-0.4-0.4-0.4l-2.4-0.2 c-0.3 0-0.5-0.2-0.5-0.5v-0.8c0-0.4 0.1-0.5 0.5-0.5h4.9c0.3 0 0.5 0.1 0.5 0.5v9.8c0 0.5 0 0.6-0.7 0.8c-1 0.3-3.8 0.9-7.7 0.9 c-7.1 0-9.6-2.8-9.6-8.9V101c0-5 2.7-8.4 9.6-8.4c4.8 0 7.2 0.4 8.2 0.7c0.2 0.1 0.3 0.2 0.3 0.4l-0.3 4.4c0 0.4-0.1 0.5-0.6 0.5 h-0.9c-0.4 0-0.5-0.1-0.6-0.5l-0.4-3c-1.7-0.2-4.3-0.4-5.7-0.4c-4.5 0-6.8 2.5-6.8 6.3L712 108.2z" fill="#1D394A"/><path d="M733.7 103.1c0-0.6-0.2-0.8-0.8-0.8l-0.8-0.1c-0.3 0-0.4-0.1-0.4-0.4v-0.8c0-0.3 0.1-0.4 0.5-0.5l1.6-0.3 c0.6-0.1 1.1-0.2 1.6-0.2c0.8 0 1 0.5 1 1v12.8c0 1 0.3 1.2 1 1.2c0.2 0 0.3 0 0.7-0.1c0.3-0.1 0.4 0 0.4 0.3v1.2 c0 0.2-0.1 0.3-0.4 0.4c-0.4 0.1-1 0.2-1.7 0.2c-2.3 0-2.8-1.3-2.8-3V103.1z M735.3 93.5c1 0 1.3 0.4 1.3 1.2v0.6 c0 0.8-0.2 1.2-1.3 1.2h-0.8c-1 0-1.2-0.4-1.2-1.2v-0.5c0-0.8 0.2-1.3 1.2-1.3H735.3z" fill="#1D394A"/><path d="M743 102.1h-1.6c-0.3 0-0.4-0.1-0.4-0.4v-1.1c0-0.3 0.1-0.4 0.4-0.4h0.7c1.5 0 1.5-2 1.9-3.5 c0.1-0.3 0.3-0.5 0.6-0.5h0.7c0.3 0 0.4 0.1 0.4 0.4v3.5h3.5c0.3 0 0.4 0.1 0.4 0.4v1.1c0 0.3-0.1 0.4-0.4 0.4h-3.5v11.4 c0 1.2 0.5 1.6 1.7 1.6c0.9 0 2-0.2 2.3-0.2c0.2 0 0.4 0.1 0.4 0.3v1.1c0 0.4-0.1 0.4-0.4 0.5c-0.4 0.1-1.9 0.4-3.2 0.4 c-2.6 0-3.6-1.2-3.6-3.4V102.1z" fill="#1D394A"/></g></g><g transform="matrix(3.031131,0,0,3.031131,-2.3826196,-5.5029304)" style="font-style:normal;font-weight:normal;font-size:17.38614845px;line-height:125%;font-family:sans-serif;letter-spacing:0px;word-spacing:0px;fill:#000000;fill-opacity:1;stroke:none;stroke-width:1px;stroke-linecap:butt;stroke-linejoin:miter;stroke-opacity:1"><g><path d="m 12.259 27.497 0 0 c -5.375 -3.188 -9.875 -6.875 -9.875 -6.875 -3.25 -3.562 2.25 -1.375 2.25 -1.375 l 9.438 3.312 -0.125 0.875 -2.75 1.188 1.062 2.875 z" style="fill:#ffffff;fill-opacity:1;fill-rule:evenodd;stroke:#000000;stroke-width:1px;stroke-linecap:butt;stroke-linejoin:miter;stroke-opacity:1"/><path d="m 20.134 11.809 c 3.062 -3.125 7.188 -5 13.438 -5.688 5.938 0.062 8.688 -0.25 15.5 3.688 1.812 1.375 5.875 3 4.688 5.813 -1.875 3.688 -1.938 3.438 -2.875 6.812 -0.938 3.375 -0.188 3.062 -1.312 4.625 -2 2.125 -0.562 2 -3.125 3.125 -3.938 -1.625 -3.188 -1.312 -5.375 -1.625 -3.75 -0.312 -3.75 -0.438 -8.438 1.812 -3.125 0.5 -0.688 0.75 -3.875 0.375 -7.625 -3.75 -5.625 -4.938 -9.5 -5.875 -3.875 -0.938 -4.625 -0.125 -5 -1.875 0.125 -3.5 3.25 -8.438 5.875 -11.188 z" style="fill:#4b8eb4;fill-opacity:1;fill-rule:evenodd;stroke:#000000;stroke-width:1px;stroke-linecap:butt;stroke-linejoin:miter;stroke-opacity:1"/><path d="m 13.384 27.997 c 5.298 0.189 6.639 3.826 9.188 5 3.074 0.762 5.028 2.375 8.562 2.5 3.898 -1.875 9.679 -1.688 15.062 -0.188 2.854 0.062 4.196 -1.97 6.75 -7.5 1.365 -4.212 1.595 -8.071 3.688 -10.125 1.219 -0.992 2.096 -2.312 -0.375 -3.312 -2.752 -0.562 -3.918 2.585 -5.375 7.312 -0.866 4.17 -2.55 9.244 -5.5 7.5 -5.193 -1.747 -3.086 -1.188 -5.562 -1.312 -4.637 0.312 -8.396 3.891 -14.438 0.625 -4.474 -3.278 -5.971 -4.108 -11.312 -5.438 -1.184 -0.314 -6.317 0.272 -0.688 4.938 z" style="fill:#ffffff;fill-opacity:1;fill-rule:evenodd;stroke:#000000;stroke-width:1px;stroke-linecap:butt;stroke-linejoin:miter;stroke-opacity:1"/><path d="m 12.853 27.934 c -0.368 0.368 -2.537 2.323 -3.719 4.5 -1.2 2.213 -1.464 4.51 -0.062 7.562 1.099 2.885 4.241 3.216 7.938 4.312 1.572 -0.263 2.72 0.717 4.125 -0.875 1.145 -1.27 1.986 -0.889 0.938 -3.25 -2.196 -3.509 -2.688 -5.782 -0.688 -7.75 -0.562 -1.44 -1.226 -2.164 -4.25 -3.938 -1.083 -0.396 -2.458 -0.807 -4.281 -0.562" style="fill:#ffffff;fill-opacity:1;fill-rule:evenodd;stroke:#000000;stroke-width:1px;stroke-linecap:butt;stroke-linejoin:miter;stroke-opacity:1"/><path d="m 25.134 34.122 c -0.97 1.283 -0.875 1.45 -0.625 3.188 0.688 1.629 0.441 2.282 3.25 2.625 3.246 -0.985 3.282 -2.938 3.312 -4.375 -3.604 -0.125 -5.315 -1.738 -5.938 -1.438 z" style="fill:#424242;fill-opacity:0.80740739;fill-rule:evenodd;stroke:#000000;stroke-width:1px;stroke-linecap:butt;stroke-linejoin:miter;stroke-opacity:1"/><path d="m 30.259 41.059 c 0.225 2.339 3.31 3.583 8.125 4.375 3.634 -0.247 6.751 1.432 9.125 -2.125 0.428 -2.651 -0.181 -6.562 -2.188 -8.188 -2.137 -1.875 -9.244 -2.015 -12.375 -0.812 -2.714 1.485 -3.105 4.643 -2.688 6.75 z" style="fill:#ffffff;fill-opacity:1;fill-rule:evenodd;stroke:#000000;stroke-width:1px;stroke-linecap:butt;stroke-linejoin:miter;stroke-opacity:1"/><path d="m 20.322 36.622 c -4.354 -0.625 -7.48 -0.911 -9 5.688 5.003 2.234 8.319 2.48 9.562 1.562 3.448 -2.429 -0.106 -5.031 -0.562 -7.25 z" style="fill:none;fill-opacity:0.75;fill-rule:evenodd;stroke:#000000;stroke-width:1px;stroke-linecap:butt;stroke-linejoin:miter;stroke-opacity:1"/><path d="m 46.572 37.372 c -3.938 0.211 -7.545 1.59 -9.812 7.312 0.628 0.744 0.848 0.737 1.938 0.812 2.557 -0.128 5.252 0.405 7.125 -0.438 3.194 -2.098 1.236 -7.48 0.688 -7.562" style="fill:none;fill-opacity:0.75;fill-rule:evenodd;stroke:#000000;stroke-width:1px;stroke-linecap:butt;stroke-linejoin:miter;stroke-opacity:1"/><path d="m 15.634 36.559 c 0.984 1.576 2.17 2.91 1.312 7.438" style="fill:none;fill-opacity:0.75;fill-rule:evenodd;stroke:#000000;stroke-width:1px;stroke-linecap:butt;stroke-linejoin:miter;stroke-opacity:1"/><path d="m 18.134 36.372 c 1.116 2.08 2.188 4.099 1.562 7.812" style="fill:none;fill-opacity:0.75;fill-rule:evenodd;stroke:#000000;stroke-width:1px;stroke-linecap:butt;stroke-linejoin:miter;stroke-opacity:1"/><path d="m 39.759 39.684 c 1.378 0.454 3.222 2.261 3.688 5.938" style="fill:none;fill-opacity:0.75;fill-rule:evenodd;stroke:#000000;stroke-width:1px;stroke-linecap:butt;stroke-linejoin:miter;stroke-opacity:1"/><path d="m 42.572 37.934 c 1.583 1.519 3.337 2.661 3.438 6.812" style="fill:none;fill-opacity:0.75;fill-rule:evenodd;stroke:#000000;stroke-width:1px;stroke-linecap:butt;stroke-linejoin:miter;stroke-opacity:1"/><path d="m 48.884 34.622 c -0.387 3.141 0.973 7.86 4.625 7.875 5.565 0.573 6.946 -1.419 8.25 -3.375 1.023 -3.739 -2.875 -7.688 -5.625 -10.188 -1.096 -0.978 -1.259 -0.938 -2.625 -1 -2.085 0.75 -2.547 6.11 -4.688 6.688" style="fill:#ffffff;fill-opacity:1;fill-rule:evenodd;stroke:#000000;stroke-width:1px;stroke-linecap:butt;stroke-linejoin:miter;stroke-opacity:1"/><path d="m 53.009 42.247 c 4.226 1.351 5.138 0.112 8 -1.938 1.906 -1.906 0.684 -6.128 -2 -8.375 -2.574 0.676 -8.649 5.289 -6 10.312 z" style="fill:#ffffff;fill-opacity:1;fill-rule:evenodd;stroke:#000000;stroke-width:1px;stroke-linecap:butt;stroke-linejoin:miter;stroke-opacity:1"/><path d="m 53.759 35.809 c -0.021 -0.021 3.092 1.556 3.938 6.188" style="fill:none;fill-opacity:0.75;fill-rule:evenodd;stroke:#000000;stroke-width:1px;stroke-linecap:butt;stroke-linejoin:miter;stroke-opacity:1"/><path d="m 56.134 33.934 c 1.093 0.982 3.504 2.54 4.375 6.562" style="fill:none;fill-opacity:0.75;fill-rule:evenodd;stroke:#000000;stroke-width:1px;stroke-linecap:butt;stroke-linejoin:miter;stroke-opacity:1"/><path d="m 64.072 12.497 c 0.927 -5.541 0.934 -5.607 2.688 -7.313 4.095 -2.618 -0.835 12.553 7.625 7.188 0.415 0.699 2.976 0.388 3.812 1.375 2.113 1.882 2.438 2.721 1.875 3.562 -2.125 3.585 -2.967 1.967 -5.812 2.938 -0.595 1.72 -2.023 2.115 -6.875 2.188 -3.148 0.271 -3.613 2.325 -5 3.625 -1.527 1.194 -3.142 3.587 -9.312 1.562 1.45 -4.123 0.669 -8.002 4.062 -10.375 5.133 0.76 5.676 -2.226 6.938 -4.75 z" style="fill:#ffffff;fill-opacity:1;fill-rule:evenodd;stroke:#000000;stroke-width:1px;stroke-linecap:butt;stroke-linejoin:miter;stroke-opacity:1"/><path d="m 68.509 16.434 c 1.182 2.098 2.756 3.438 6.25 3.562" style="fill:none;fill-opacity:0.75;fill-rule:evenodd;stroke:#000000;stroke-width:1px;stroke-linecap:butt;stroke-linejoin:miter;stroke-opacity:1"/><ellipse ry="5.375" rx="3.375" cy="7.684" cx="75.634" style="fill:#0079bb;fill-opacity:1;fill-rule:evenodd;stroke:#000000;stroke-width:1px;stroke-linecap:butt;stroke-linejoin:miter;stroke-opacity:1"/><ellipse ry="5.375" rx="3.375" cy="8.372" cx="71.697" style="fill:#0079bb;fill-opacity:1;fill-rule:evenodd;stroke:#000000;stroke-width:1px;stroke-linecap:butt;stroke-linejoin:miter;stroke-opacity:1"/><ellipse ry="2.219" rx="1.438" cy="9.09" cx="72.884" style="fill:#000000;fill-opacity:1"/><ellipse ry="2.125" rx="1.313" cy="8.153" cx="77.009" style="fill:#000000;fill-opacity:1"/><g><g><ellipse rx="1.44" ry="2.22" cy="9.09" cx="72.9"/><ellipse rx="1.31" ry="2.12" cy="8.15" cx="77"/><path d="m34.7 22.7q-0.934 0.428-2.04 0.75-1.1 0.314-2.13 0.314-1.33 0-2.44-0.367t-1.89-1.1q-0.788-0.742-1.22-1.85-0.428-1.12-0.428-2.61 0-2.73 1.59-4.31 1.6-1.58 4.38-1.58 0.972 0 1.98 0.237 1.02 0.23 2.19 0.788v1.8h-0.138q-0.237-0.184-0.689-0.482-0.451-0.298-0.888-0.497-0.528-0.237-1.2-0.39-0.666-0.161-1.52-0.161-1.91 0-3.03 1.23-1.11 1.22-1.11 3.32 0 2.21 1.16 3.44 1.16 1.22 3.17 1.22 0.735 0 1.46-0.145 0.735-0.145 1.29-0.375v-2.79h-3.05v-1.33h4.55v4.89z"/><path d="m38.8 13.6h-1.62v-1.49h1.62v1.49zm-0.0918 9.98h-1.44v-8.55h1.44v8.55z"/><path d="m45.9 23.5q-0.406 0.107-0.888 0.176-0.474 0.0689-0.849 0.0689-1.31 0-1.99-0.704-0.681-0.704-0.681-2.26v-4.55h-0.972v-1.21h0.972v-2.46h1.44v2.46h2.97v1.21h-2.97v3.89q0 0.673 0.0306 1.06 0.0306 0.375 0.214 0.704 0.168 0.306 0.459 0.451 0.298 0.138 0.903 0.138 0.352 0 0.735-0.0995 0.383-0.107 0.551-0.176h0.0765v1.29z"/></g></g></g></g></svg>