<?xml version="1.0" standalone="no"?><!DOCTYPE svg PUBLIC "-//W3C//DTD SVG 1.1//EN" "http://www.w3.org/Graphics/SVG/1.1/DTD/svg11.dtd"><svg t="1689341485131" viewBox="0 0 1024 1024" version="1.1" xmlns="http://www.w3.org/2000/svg" width="11" height="11" xmlns:xlink="http://www.w3.org/1999/xlink"><path d="M787.136 395.466H373.113c0.036-0.579 0.173-1.128 0.173-1.716V267.63c0-81.153 72.891-147.174 162.483-147.174 86.561 0 162.488 64.414 162.488 137.851 0 15.446 12.523 27.969 27.969 27.969 15.446 0 27.969-12.523 27.969-27.969 0-105.043-100.027-193.789-218.426-193.789-120.439 0-218.422 91.118-218.422 203.112v126.12c0 0.588 0.137 1.138 0.173 1.716h-14.467c-82.25 0-149.168 66.918-149.168 149.168v284.402c0 71.971 58.551 130.522 130.522 130.522h502.728c71.971 0 130.522-58.551 130.522-130.522V525.988c0.001-71.971-58.55-130.522-130.521-130.522z m74.584 433.57c0 41.125-33.459 74.584-74.584 74.584H284.408c-41.125 0-74.584-33.459-74.584-74.584V544.634c0-51.409 41.822-93.23 93.23-93.23h484.082c41.125 0 74.584 33.459 74.584 74.584v303.048z" fill="#000"></path><path d="M613.108 649.541H458.436c-15.446 0-27.969 12.523-27.969 27.969 0 15.446 12.523 27.969 27.969 27.969h154.672c15.446 0 27.969-12.523 27.969-27.969 0-15.446-12.523-27.969-27.969-27.969z" fill="#000"></path></svg>