<?xml version="1.0" encoding="UTF-8"?>
<svg width="70px" height="70px" viewBox="0 0 70 70" version="1.1" xmlns="http://www.w3.org/2000/svg" xmlns:xlink="http://www.w3.org/1999/xlink">
    <!-- Generator: Sketch 59.1 (86144) - https://sketch.com -->
    <title>Ease to use Copy</title>
    <desc>Created with Sketch.</desc>
    <g id="Ease-to-use-Copy" stroke="none" stroke-width="1" fill="none" fill-rule="evenodd">
        <path d="M15.4883817,11.8109303 C18.0101193,11.8109303 20.0543915,13.8552025 20.0543915,16.3769401 L20.0543915,25.7926326 C20.7637596,25.3098057 21.6206415,25.0275925 22.5434377,25.0275925 C24.8557597,25.0275925 26.7542103,26.7995862 26.9549407,29.0597246 C27.715234,28.5113237 28.6488142,28.1882131 29.6578609,28.1882131 C32.141427,28.1882131 34.1678173,30.1456155 34.2784782,32.6018666 L34.2832378,32.8693573 C34.9164111,32.4733611 35.6648108,32.2444789 36.4666689,32.2444789 C38.7900207,32.2444789 40.7106019,34.0556373 40.8467156,36.3749806 C41.1115769,40.8870762 41.024722,45.9128993 40.5870883,51.4536158 C39.8128823,61.2555477 33.0532745,66.4365124 23.7681946,66.4365124 C16.5642399,66.4365124 11.4124173,62.7707733 8.076391,56.4100381 L7.85537385,55.9783394 C6.32056555,52.9113266 4.28274687,47.4438702 1.72596533,39.5470097 L1.1695094,37.8156714 C1.10075711,37.6003295 1.05018083,37.3795806 1.01830155,37.155745 C0.70313048,34.9428191 2.24156481,32.8933915 4.45449081,32.5782204 C7.0086499,32.2144499 9.49330276,33.59287 10.5366292,35.9524309 L10.9223719,36.8248167 L10.9223719,16.3769401 C10.9223719,13.8552025 12.9666441,11.8109303 15.4883817,11.8109303 Z M15.4883817,13.7509304 C14.0380765,13.7509304 12.8623719,14.926635 12.8623719,16.3769401 L12.8623719,41.4171565 C12.8623719,42.4658462 11.429318,42.7685377 11.0052273,41.809425 L8.76234012,36.7369679 C8.07029702,35.1718607 6.42221574,34.2575485 4.72803066,34.4988391 C3.57583308,34.6629383 2.77482106,35.7300076 2.93892024,36.8822052 C2.95551444,36.9987188 2.98183413,37.1135957 3.01763988,37.2257444 L3.56778645,38.9374799 C6.2186158,47.1251527 8.30030999,52.6601508 9.7944363,55.5089718 C12.8176437,61.2732612 17.3475944,64.4965123 23.7681946,64.4965123 C32.1097002,64.4965123 37.9653464,60.0083975 38.6531115,51.3008606 C39.0840675,45.844688 39.169401,40.9069003 38.9100485,36.4886499 C38.8341183,35.1948188 37.7627379,34.1844789 36.4666689,34.1844789 C35.461174,34.1844789 34.6144238,34.8641457 34.3607785,35.789119 L34.3623697,35.8112342 L34.251713,42.8950396 C34.251713,43.4473243 33.8039978,43.8950396 33.251713,43.8950396 C32.6994283,43.8950396 32.251713,43.4473243 32.251713,42.8950396 L32.251713,42.8950396 L32.3511934,36.507747 C32.3459575,36.4629478 32.3432378,36.4163354 32.3432378,36.3679099 L32.3432378,32.8135901 C32.3432378,31.3304974 31.1409536,30.1282132 29.6578609,30.1282132 C28.2362506,30.1282132 27.0726493,31.2328809 26.9786169,32.6306562 C26.993218,32.6801868 27,32.7323533 27,32.7857645 L27,32.7857645 L27,40.2142355 C27,40.6482012 26.5522847,41 26,41 C25.4477153,41 25,40.6482012 25,40.2142355 L25,40.2142355 L25,32.7857645 C25,32.7171664 25.0111871,32.6506213 25.0322058,32.5871944 L25.0324839,29.4566388 C25.0324839,28.0819765 23.9181,26.9675926 22.5434377,26.9675926 C21.3412331,26.9675926 20.3380971,27.8199066 20.1053224,28.9532418 L20.1063465,39.4272562 C20.1063465,39.9795409 19.6586313,40.4272562 19.1063465,40.4272562 C18.5540618,40.4272562 18.1063465,39.9795409 18.1063465,39.4272562 L18.1063465,39.4272562 L18.1063465,27.973443 C18.1063465,27.9301539 18.1090971,27.8875073 18.1144332,27.8456684 L18.1143915,16.3769401 C18.1143915,14.926635 16.9386868,13.7509304 15.4883817,13.7509304 Z M50.0381775,15.0520933 L50.0381775,16.9920934 L34.6828659,16.9920934 L38.5625906,21.2202331 L37.1331735,22.5318607 L30.2697678,15.0520933 L50.0381775,15.0520933 Z M43.1747718,3.34418619 L50.0381775,10.8239536 L30.2697678,10.8239536 L30.2697678,8.88395353 L45.6250794,8.88395353 L41.7453547,4.65581381 L43.1747718,3.34418619 Z" id="Combined-Shape" fill="#434350" fill-rule="nonzero"></path>
    </g>
</svg>