<?xml version="1.0" standalone="no"?><!DOCTYPE svg PUBLIC "-//W3C//DTD SVG 1.1//EN" "http://www.w3.org/Graphics/SVG/1.1/DTD/svg11.dtd"><svg t="1606369104860" class="icon" viewBox="0 0 1024 1024" version="1.1" xmlns="http://www.w3.org/2000/svg" p-id="10028" width="32" height="32" xmlns:xlink="http://www.w3.org/1999/xlink"><defs><style type="text/css"></style></defs><path d="M930.90671 255.998645H93.091484C41.890671 255.998645 0.000903 297.892026 0.000903 349.091032v325.81613c0 51.200813 41.889768 93.092387 93.090581 93.092386H930.90671c51.202619 0 93.092387-41.891574 93.092387-93.092386V349.091032c0-51.199007-41.891574-93.092387-93.092387-93.092387zM325.818839 605.089678c0 9.768018-6.516828 18.618477-15.826067 21.884116-2.319182 0.933814-5.111592 1.390787-7.44703 1.390787-6.973801 0-13.962052-3.726224-18.618477-9.768018l-97.745201-129.395528v115.890449c0 12.576684-10.241246 23.274903-23.273096 23.274903s-23.271291-10.698219-23.271291-23.274903V419.840524c0-9.764405 6.516828-18.614865 15.826067-21.884117 9.782467-3.251189 20.021907 0 26.065507 8.380844 32.582335 42.982529 65.162865 85.96867 97.7452 128.936749v-115.433476c0-12.558622 10.23944-22.814318 23.273097-22.814318s23.273097 10.255696 23.273097 22.814318l-0.001806 185.249154z m162.908064-116.360065c13.033657 0 23.273097 10.237634 23.273097 23.27129s-10.23944 23.271291-23.273097 23.271291h-69.817484v46.546193h69.817484c13.033657 0 23.273097 10.241246 23.273097 23.273097 0 13.033657-10.23944 23.274903-23.273097 23.274903h-93.09058c-13.03185 0-23.273097-10.241246-23.273097-23.274903V418.910322c0-13.03185 10.23944-23.271291 23.273097-23.27129h93.09058c13.033657 0 23.273097 10.237634 23.273097 23.27129s-10.23944 23.273097-23.273097 23.273097h-69.817484v46.548l69.817484-0.001806z m388.18839-63.761241a1045968.307762 1045968.307762 0 0 0-68.887283 182.458549 22.704139 22.704139 0 0 1-21.410887 14.89406c-9.307432 0-18.145249-6.058049-21.410888-14.89406-15.824261-41.889768-31.650328-83.783148-47.476395-125.687365-15.826067 41.906024-31.646715 83.797598-47.474588 125.687365-6.516828 17.68647-36.304947 17.68647-42.821776 0a1045968.307762 1045968.307762 0 0 0-68.887283-182.458549c-4.181391-11.644676 1.40343-24.678333 13.506886-29.331146 12.099843-4.654619 25.133499 1.387174 29.31489 13.488823 15.824261 41.906024 31.648522 83.797598 47.476395 125.689172a1178505.221411 1178505.221411 0 0 0 47.474588-125.689172c6.515022-17.68647 36.306753-17.68647 42.821776 0 15.826067 41.906024 31.652134 83.797598 47.476395 125.689172 15.826067-41.891574 31.650328-83.783148 47.476395-125.689172 4.19584-12.101649 17.68647-17.68647 29.331146-13.488823 12.101649 4.19584 18.145249 17.229497 13.490629 29.331146z" fill="#d81e06" p-id="10029"></path></svg>